<svg width="96" height="96" viewBox="0 0 96 96" fill="none" xmlns="http://www.w3.org/2000/svg">
<rect width="96" height="96" fill="white"/>
<path d="M26.4413 45.3097C26.1786 45.3097 25.9636 45.2266 25.7965 45.0601C25.6294 44.8938 25.5457 44.68 25.5457 44.4185V21.2497C25.5457 20.9883 25.6294 20.7744 25.7965 20.6081C25.9636 20.4417 26.1786 20.3586 26.4413 20.3586H43.172C43.4348 20.3586 43.6498 20.4417 43.8169 20.6081C43.9842 20.7744 44.0677 20.9883 44.0677 21.2497V24.6002C44.0677 24.8616 43.9842 25.0755 43.8169 25.2418C43.6498 25.4082 43.4348 25.4914 43.172 25.4914H31.7436V30.3034H42.3839C42.6466 30.3034 42.8616 30.3984 43.0288 30.5885C43.1959 30.7549 43.2796 30.9687 43.2796 31.2301V34.3312C43.2796 34.5688 43.1959 34.7827 43.0288 34.9728C42.8616 35.1391 42.6466 35.2223 42.3839 35.2223H31.7436V40.177H43.4588C43.7215 40.177 43.9363 40.2601 44.1036 40.4264C44.2708 40.5927 44.3544 40.8067 44.3544 41.068V44.4185C44.3544 44.68 44.2708 44.8938 44.1036 45.0601C43.9363 45.2266 43.7215 45.3097 43.4588 45.3097H26.4413Z" fill="#1B1818"/>
<path d="M26.4413 45.3097C26.1786 45.3097 25.9636 45.2266 25.7965 45.0601C25.6294 44.8938 25.5457 44.68 25.5457 44.4185V21.2497C25.5457 20.9883 25.6294 20.7744 25.7965 20.6081C25.9636 20.4417 26.1786 20.3586 26.4413 20.3586H43.172C43.4348 20.3586 43.6498 20.4417 43.8169 20.6081C43.9842 20.7744 44.0677 20.9883 44.0677 21.2497V24.6002C44.0677 24.8616 43.9842 25.0755 43.8169 25.2418C43.6498 25.4082 43.4348 25.4914 43.172 25.4914H31.7436V30.3034H42.3839C42.6466 30.3034 42.8616 30.3984 43.0288 30.5885C43.1959 30.7549 43.2796 30.9687 43.2796 31.2301V34.3312C43.2796 34.5688 43.1959 34.7827 43.0288 34.9728C42.8616 35.1391 42.6466 35.2223 42.3839 35.2223H31.7436V40.177H43.4588C43.7215 40.177 43.9363 40.2601 44.1036 40.4264C44.2708 40.5927 44.3544 40.8067 44.3544 41.068V44.4185C44.3544 44.68 44.2708 44.8938 44.1036 45.0601C43.9363 45.2266 43.7215 45.3097 43.4588 45.3097H26.4413Z" fill="url(#paint0_linear_34_150)" fill-opacity="0.2"/>
<path d="M48.7033 45.3097C48.4406 45.3097 48.2257 45.2266 48.0584 45.0601C47.8913 44.8938 47.8076 44.68 47.8076 44.4185V21.2497C47.8076 20.9883 47.8913 20.7744 48.0584 20.6081C48.2257 20.4417 48.4406 20.3586 48.7033 20.3586H58.7345C60.717 20.3586 62.4367 20.6675 63.8935 21.2853C65.3744 21.8794 66.5208 22.7824 67.3328 23.9943C68.1688 25.2062 68.5867 26.7389 68.5867 28.5924C68.5867 30.4222 68.1688 31.9311 67.3328 33.1193C66.5208 34.3074 65.3744 35.1867 63.8935 35.757C62.4367 36.3273 60.717 36.6124 58.7345 36.6124H54.4713V44.4185C54.4713 44.68 54.3758 44.8938 54.1848 45.0601C54.0175 45.2266 53.8026 45.3097 53.5398 45.3097H48.7033ZM54.3638 31.6935H58.5555C59.5825 31.6935 60.3946 31.4321 60.9916 30.9093C61.6126 30.3865 61.9232 29.5905 61.9232 28.5212C61.9232 27.6182 61.6605 26.8577 61.1349 26.2399C60.6094 25.6221 59.7498 25.3131 58.5555 25.3131H54.3638V31.6935Z" fill="#1B1818"/>
<path d="M48.7033 45.3097C48.4406 45.3097 48.2257 45.2266 48.0584 45.0601C47.8913 44.8938 47.8076 44.68 47.8076 44.4185V21.2497C47.8076 20.9883 47.8913 20.7744 48.0584 20.6081C48.2257 20.4417 48.4406 20.3586 48.7033 20.3586H58.7345C60.717 20.3586 62.4367 20.6675 63.8935 21.2853C65.3744 21.8794 66.5208 22.7824 67.3328 23.9943C68.1688 25.2062 68.5867 26.7389 68.5867 28.5924C68.5867 30.4222 68.1688 31.9311 67.3328 33.1193C66.5208 34.3074 65.3744 35.1867 63.8935 35.757C62.4367 36.3273 60.717 36.6124 58.7345 36.6124H54.4713V44.4185C54.4713 44.68 54.3758 44.8938 54.1848 45.0601C54.0175 45.2266 53.8026 45.3097 53.5398 45.3097H48.7033ZM54.3638 31.6935H58.5555C59.5825 31.6935 60.3946 31.4321 60.9916 30.9093C61.6126 30.3865 61.9232 29.5905 61.9232 28.5212C61.9232 27.6182 61.6605 26.8577 61.1349 26.2399C60.6094 25.6221 59.7498 25.3131 58.5555 25.3131H54.3638V31.6935Z" fill="url(#paint1_linear_34_150)" fill-opacity="0.2"/>
<path d="M2.89565 45.3097C2.63293 45.3097 2.41797 45.2266 2.25078 45.0601C2.08359 44.8938 2 44.68 2 44.4185V21.2497C2 20.9883 2.08359 20.7744 2.25078 20.6081C2.41797 20.4417 2.63293 20.3586 2.89565 20.3586H20.0564C20.3191 20.3586 20.5339 20.4417 20.7012 20.6081C20.8922 20.7744 20.9878 20.9883 20.9878 21.2497V24.8141C20.9878 25.0755 20.8922 25.3013 20.7012 25.4914C20.5339 25.6577 20.3191 25.7409 20.0564 25.7409H8.41284V29.9826H13.4285C16.2946 29.9826 18.5516 30.6598 20.1996 32.0143C21.8476 33.3688 22.6715 35.2104 22.6715 37.5391C22.6715 38.6322 22.4686 39.6541 22.0625 40.6046C21.6565 41.5314 21.0593 42.3512 20.2712 43.0641C19.5069 43.7532 18.5516 44.2998 17.4052 44.7037C16.2587 45.1077 14.9332 45.3097 13.4285 45.3097H2.89565ZM8.41284 40.676H12.8553C13.5479 40.676 14.1211 40.5334 14.5749 40.2482C15.0526 39.9393 15.4109 39.5471 15.6497 39.0719C15.8885 38.5729 16.008 38.0501 16.008 37.5035C16.008 36.6719 15.7333 35.959 15.184 35.3649C14.6585 34.7708 13.8823 34.4738 12.8553 34.4738H8.41284V40.676Z" fill="#1B1818"/>
<path d="M2.89565 45.3097C2.63293 45.3097 2.41797 45.2266 2.25078 45.0601C2.08359 44.8938 2 44.68 2 44.4185V21.2497C2 20.9883 2.08359 20.7744 2.25078 20.6081C2.41797 20.4417 2.63293 20.3586 2.89565 20.3586H20.0564C20.3191 20.3586 20.5339 20.4417 20.7012 20.6081C20.8922 20.7744 20.9878 20.9883 20.9878 21.2497V24.8141C20.9878 25.0755 20.8922 25.3013 20.7012 25.4914C20.5339 25.6577 20.3191 25.7409 20.0564 25.7409H8.41284V29.9826H13.4285C16.2946 29.9826 18.5516 30.6598 20.1996 32.0143C21.8476 33.3688 22.6715 35.2104 22.6715 37.5391C22.6715 38.6322 22.4686 39.6541 22.0625 40.6046C21.6565 41.5314 21.0593 42.3512 20.2712 43.0641C19.5069 43.7532 18.5516 44.2998 17.4052 44.7037C16.2587 45.1077 14.9332 45.3097 13.4285 45.3097H2.89565ZM8.41284 40.676H12.8553C13.5479 40.676 14.1211 40.5334 14.5749 40.2482C15.0526 39.9393 15.4109 39.5471 15.6497 39.0719C15.8885 38.5729 16.008 38.0501 16.008 37.5035C16.008 36.6719 15.7333 35.959 15.184 35.3649C14.6585 34.7708 13.8823 34.4738 12.8553 34.4738H8.41284V40.676Z" fill="url(#paint2_linear_34_150)" fill-opacity="0.2"/>
<path d="M71.4431 45.3097C71.1804 45.3097 70.9654 45.2266 70.7983 45.0601C70.631 44.8702 70.5475 44.6562 70.5475 44.4185V21.2497C70.5475 20.9883 70.631 20.7744 70.7983 20.6081C70.9893 20.4417 71.2043 20.3586 71.4431 20.3586H76.0646C76.3273 20.3586 76.5423 20.4417 76.7094 20.6081C76.8767 20.7744 76.9602 20.9883 76.9602 21.2497V35.6144L87.1707 21.0358C87.2901 20.8457 87.4453 20.6912 87.6365 20.5724C87.8275 20.4298 88.0783 20.3586 88.3888 20.3586H92.5445C92.7834 20.3586 92.9865 20.4417 93.1536 20.6081C93.3447 20.7744 93.4401 20.9883 93.4401 21.2497V44.4185C93.4401 44.68 93.3447 44.8938 93.1536 45.0601C92.9865 45.2266 92.7834 45.3097 92.5445 45.3097H87.923C87.6603 45.3097 87.4334 45.2266 87.2424 45.0601C87.0751 44.8938 86.9916 44.68 86.9916 44.4185V30.5885L76.8169 44.6325C76.6975 44.7988 76.5423 44.9533 76.3513 45.0959C76.184 45.2383 75.9332 45.3097 75.599 45.3097H71.4431Z" fill="#1B1818"/>
<path d="M71.4431 45.3097C71.1804 45.3097 70.9654 45.2266 70.7983 45.0601C70.631 44.8702 70.5475 44.6562 70.5475 44.4185V21.2497C70.5475 20.9883 70.631 20.7744 70.7983 20.6081C70.9893 20.4417 71.2043 20.3586 71.4431 20.3586H76.0646C76.3273 20.3586 76.5423 20.4417 76.7094 20.6081C76.8767 20.7744 76.9602 20.9883 76.9602 21.2497V35.6144L87.1707 21.0358C87.2901 20.8457 87.4453 20.6912 87.6365 20.5724C87.8275 20.4298 88.0783 20.3586 88.3888 20.3586H92.5445C92.7834 20.3586 92.9865 20.4417 93.1536 20.6081C93.3447 20.7744 93.4401 20.9883 93.4401 21.2497V44.4185C93.4401 44.68 93.3447 44.8938 93.1536 45.0601C92.9865 45.2266 92.7834 45.3097 92.5445 45.3097H87.923C87.6603 45.3097 87.4334 45.2266 87.2424 45.0601C87.0751 44.8938 86.9916 44.68 86.9916 44.4185V30.5885L76.8169 44.6325C76.6975 44.7988 76.5423 44.9533 76.3513 45.0959C76.184 45.2383 75.9332 45.3097 75.599 45.3097H71.4431Z" fill="url(#paint3_linear_34_150)" fill-opacity="0.2"/>
<path d="M2.89565 74.741C2.63293 74.741 2.41797 74.6579 2.25078 74.4914C2.08359 74.3252 2 74.1113 2 73.85V50.681C2 50.4196 2.08359 50.2057 2.25078 50.0394C2.41797 49.8731 2.63293 49.7899 2.89565 49.7899H20.0564C20.3191 49.7899 20.5339 49.8731 20.7012 50.0394C20.8922 50.2057 20.9878 50.4196 20.9878 50.681V54.2455C20.9878 54.5068 20.8922 54.7326 20.7012 54.9227C20.5339 55.089 20.3191 55.1721 20.0564 55.1721H8.41284V59.4138H13.4285C16.2946 59.4138 18.5516 60.0911 20.1996 61.4457C21.8476 62.8001 22.6715 64.6418 22.6715 66.9704C22.6715 68.0635 22.4686 69.0854 22.0625 70.0359C21.6565 70.9627 21.0593 71.7825 20.2712 72.4954C19.5069 73.1845 18.5516 73.7311 17.4052 74.135C16.2587 74.539 14.9332 74.741 13.4285 74.741H2.89565ZM8.41284 70.1073H12.8553C13.5479 70.1073 14.1211 69.9647 14.5749 69.6795C15.0526 69.3706 15.4109 68.9784 15.6497 68.5033C15.8885 68.0042 16.008 67.4814 16.008 66.9348C16.008 66.1033 15.7333 65.3903 15.184 64.7962C14.6585 64.2021 13.8823 63.9051 12.8553 63.9051H8.41284V70.1073Z" fill="#BD2B3D"/>
<path d="M26.4415 74.741C26.1786 74.741 25.9638 74.6579 25.7965 74.4914C25.6294 74.3252 25.5457 74.1113 25.5457 73.85V50.681C25.5457 50.4196 25.6294 50.2057 25.7965 50.0394C25.9638 49.8731 26.1786 49.7899 26.4415 49.7899H43.1722C43.4349 49.7899 43.6498 49.8731 43.8171 50.0394C43.9842 50.2057 44.0679 50.4196 44.0679 50.681V54.0315C44.0679 54.293 43.9842 54.5068 43.8171 54.6731C43.6498 54.8396 43.4349 54.9227 43.1722 54.9227H31.7436V59.7346H42.3839C42.6466 59.7346 42.8616 59.8297 43.0288 60.0198C43.1961 60.1861 43.2796 60.4001 43.2796 60.6615V63.7625C43.2796 64.0002 43.1961 64.214 43.0288 64.4041C42.8616 64.5704 42.6466 64.6536 42.3839 64.6536H31.7436V69.6083H43.4588C43.7215 69.6083 43.9365 69.6914 44.1036 69.8577C44.2708 70.024 44.3544 70.238 44.3544 70.4993V73.85C44.3544 74.1113 44.2708 74.3252 44.1036 74.4914C43.9365 74.6579 43.7215 74.741 43.4588 74.741H26.4415Z" fill="#BD2B3D"/>
<path d="M48.7193 68.3598C48.4566 68.3598 48.2416 68.2767 48.0745 68.1102C47.9073 67.9439 47.8237 67.7301 47.8237 67.4686V50.681C47.8237 50.4196 47.9073 50.2057 48.0745 50.0394C48.2416 49.8731 48.4566 49.7899 48.7193 49.7899H58.7505C60.733 49.7899 62.4525 50.0988 63.9095 50.7166C67.012 51.9613 68.6027 54.5085 68.6027 57.7462C68.6027 60.6528 66.6126 63.4073 63.9095 64.4484C62.4525 65.0187 60.733 65.3039 58.7505 65.3039H54.4872V67.4686C54.4872 67.7301 54.3918 67.9439 54.2006 68.1102C54.0335 68.2767 53.8185 68.3598 53.5558 68.3598H48.7193ZM54.3799 60.3849H58.5715C60.0227 60.3849 61.939 59.3235 61.939 57.675C61.939 55.6667 60.5577 54.7445 58.5715 54.7445H54.3799V60.3849Z" fill="#BD2B3D"/>
<path d="M72.5189 74.741C72.2561 74.741 72.0411 74.6579 71.874 74.4914C71.7067 74.3252 71.6232 74.1113 71.6232 73.85V70.0715C71.6232 69.8102 71.7067 69.5964 71.874 69.4299C72.0411 69.2636 72.2561 69.1805 72.5189 69.1805H76.3139C76.9587 69.1805 77.508 69.0617 77.9618 68.8241C78.4155 68.5627 78.8215 68.1825 79.1798 67.6834C79.562 67.1844 79.9322 66.519 80.2905 65.6874L87.4791 50.5384C87.5745 50.277 87.7179 50.0869 87.9089 49.9682C88.1001 49.8492 88.3149 49.7899 88.5538 49.7899H93.247C93.462 49.7899 93.641 49.8731 93.7843 50.0394C93.9278 50.182 93.9993 50.3483 93.9993 50.5384C93.9993 50.6335 93.9874 50.7404 93.9635 50.8592C93.9397 50.9779 93.9037 51.0849 93.856 51.18L86.2018 67.4696C85.6047 68.8241 85.0194 69.9647 84.4463 70.8913C83.897 71.8182 83.288 72.5668 82.6193 73.137C81.9504 73.7074 81.1503 74.1233 80.2189 74.3846C79.3112 74.6223 78.1888 74.741 76.8512 74.741H72.5189ZM80.0039 68.3251L70.0568 50.8948C70.009 50.7997 69.9851 50.6929 69.9851 50.574C69.9851 50.3839 70.0688 50.2057 70.2359 50.0394C70.403 49.8731 70.6061 49.7899 70.845 49.7899H75.7889C76.0517 49.7899 76.2546 49.8612 76.398 50.0038C76.5652 50.1225 76.7084 50.3007 76.8279 50.5384L83.2999 62.0873L80.0039 68.3251Z" fill="#BD2B3D"/>
<path d="M47.8237 70.7479C47.8237 70.1681 48.2937 69.6982 48.8735 69.6982H53.4195C53.9993 69.6982 54.4693 70.1681 54.4693 70.7479V73.8273C54.4693 74.4071 53.9993 74.8772 53.4195 74.8772H48.8735C48.2937 74.8772 47.8237 74.4071 47.8237 73.8273V70.7479Z" fill="#1B1818"/>
<path d="M47.8237 70.7479C47.8237 70.1681 48.2937 69.6982 48.8735 69.6982H53.4195C53.9993 69.6982 54.4693 70.1681 54.4693 70.7479V73.8273C54.4693 74.4071 53.9993 74.8772 53.4195 74.8772H48.8735C48.2937 74.8772 47.8237 74.4071 47.8237 73.8273V70.7479Z" fill="url(#paint4_linear_34_150)" fill-opacity="0.2"/>
<defs>
<linearGradient id="paint0_linear_34_150" x1="48.765" y1="20.3586" x2="48.765" y2="45.3097" gradientUnits="userSpaceOnUse">
<stop stop-color="white"/>
<stop offset="1" stop-color="white" stop-opacity="0"/>
</linearGradient>
<linearGradient id="paint1_linear_34_150" x1="48.765" y1="20.3586" x2="48.765" y2="45.3097" gradientUnits="userSpaceOnUse">
<stop stop-color="white"/>
<stop offset="1" stop-color="white" stop-opacity="0"/>
</linearGradient>
<linearGradient id="paint2_linear_34_150" x1="48.765" y1="20.3586" x2="48.765" y2="45.3097" gradientUnits="userSpaceOnUse">
<stop stop-color="white"/>
<stop offset="1" stop-color="white" stop-opacity="0"/>
</linearGradient>
<linearGradient id="paint3_linear_34_150" x1="48.2499" y1="20.3586" x2="48.2499" y2="45.3097" gradientUnits="userSpaceOnUse">
<stop stop-color="white"/>
<stop offset="1" stop-color="white" stop-opacity="0"/>
</linearGradient>
<linearGradient id="paint4_linear_34_150" x1="51.1464" y1="69.6982" x2="51.1464" y2="74.8772" gradientUnits="userSpaceOnUse">
<stop stop-color="white"/>
<stop offset="1" stop-color="white" stop-opacity="0"/>
</linearGradient>
</defs>
</svg>
