<svg width="96" height="96" viewBox="0 0 96 96" fill="none" xmlns="http://www.w3.org/2000/svg">
<rect width="96" height="96" fill="#F4F5F8"/>
<path d="M8.10704 37.3857C7.81672 37.6346 7.86338 37.9819 7.83228 38.3085C8.22109 38.0856 8.13296 37.7279 8.10704 37.3857Z" fill="#388988"/>
<path d="M75.315 15.8965L74.8276 15.4766C74.8301 15.5368 74.845 15.5959 74.8712 15.6502C74.8975 15.7045 74.9346 15.7528 74.9802 15.7922C75.0259 15.8315 75.0792 15.8611 75.1368 15.879C75.1943 15.897 75.255 15.9029 75.315 15.8965V15.8965Z" fill="#388988"/>
<path d="M20.8083 16.5762L20.7772 16.6021L20.4558 16.8613C20.5387 16.8628 20.6195 16.8351 20.684 16.7829C20.7485 16.7308 20.7925 16.6576 20.8083 16.5762Z" fill="#388988"/>
<path d="M59.3647 32.6715C53.6652 32.6715 48.552 35.0651 45.3101 38.3607H45.1122L50.5204 12H33.7131L24.1815 60.2309C23.4451 63.3726 23.0493 66.5872 23.0013 69.8169C22.9042 78.4059 28.4057 84 41.183 84C63.7869 84 73.9086 65.9239 73.9086 49.6478C73.9086 40.8571 69.1914 32.6715 59.3647 32.6715ZM44.8171 71.2173C42.2624 71.2173 40.4958 69.619 40.3949 66.6241C40.2007 64.7214 40.5929 63.0279 40.8879 61.4296L41.5752 57.9362C42.9534 50.6448 47.0805 46.4512 51.2076 46.4512C54.6475 46.4512 56.317 49.2482 56.317 53.4419C56.317 61.03 51.2076 71.2173 44.8171 71.2173Z" fill="#282735"/>
</svg>
