<svg width="96" height="96" viewBox="0 0 96 96" fill="none" xmlns="http://www.w3.org/2000/svg">
<rect width="96" height="96" fill="#FDB515"/>
<path fill-rule="evenodd" clip-rule="evenodd" d="M42.646 37.263C44.1907 27.1645 40.5723 16.9636 33.0128 10.1056C32.7632 9.87912 32.3628 10.0391 32.3372 10.3754L31.4477 22.0758L30 35.0331V84.0885C30.0149 85.1395 31.5632 86 32.613 86H40.56H48.24H48.8351L48.8459 85.9898C58.3739 85.6722 66 77.8801 66 68.3146C66 58.5471 58.0485 50.6289 48.24 50.6289H40.6015L42.646 37.263ZM47.76 68.6492C50.1459 68.6492 52.08 66.509 52.08 63.8692C52.08 61.2294 50.1459 59.0894 47.76 59.0894C45.3741 59.0894 43.44 61.2294 43.44 63.8692C43.44 66.509 45.3741 68.6492 47.76 68.6492Z" fill="#1E1E1E"/>
</svg>
