<svg width="96" height="96" viewBox="0 0 96 96" fill="none" xmlns="http://www.w3.org/2000/svg">
<path fill-rule="evenodd" clip-rule="evenodd" d="M6.61935 19.9414C6.56134 19.1748 7.47523 18.7262 8.05846 19.2351L47.8141 53.9202C48.1421 54.2063 48.6343 54.2063 48.9623 53.9202L88.7391 19.2167C89.3193 18.7104 90.2295 19.1518 90.1786 19.9151L89.3498 32.4332C88.9776 38.0595 85.8286 43.1451 80.9279 46.0342L48.8339 64.9561C48.5594 65.1179 48.2172 65.1175 47.9432 64.955L15.949 45.9872C11.1175 43.1229 7.99474 38.1185 7.57469 32.5667L6.61935 19.9414ZM26.8944 31.4053C26.8169 31.3375 26.8087 31.2208 26.876 31.1431L27.5167 30.4035C38.8057 17.3716 59.3161 17.7289 70.1329 31.1459C70.1949 31.2225 70.1843 31.3337 70.109 31.3975L49.3123 49.0404C48.6547 49.5983 47.6811 49.591 47.0322 49.0232L26.8944 31.4053ZM30.3227 59.6859C30.3227 59.0187 31.0603 58.6073 31.6384 58.9523L39.4763 63.6281C40.2283 64.0768 39.9064 65.2189 39.0279 65.2189H35.5271C32.6528 65.2189 30.3227 62.9166 30.3227 60.0765V59.6859ZM65.1366 58.9523C65.7148 58.6073 66.452 59.0187 66.452 59.6859V60.0765C66.452 62.9166 64.1222 65.2189 61.2478 65.2189H57.7469C56.8683 65.2189 56.5464 64.0768 57.2984 63.6281L65.1366 58.9523ZM16.8245 50.3343C15.9359 49.8109 14.784 50.1674 14.3565 51.0983L2 78L17.1196 75.9768C20.8653 75.4758 23.8512 72.6357 24.5006 68.9564L26.55 57.3466C26.6736 56.6465 26.3472 55.9437 25.7294 55.5797L16.8245 50.3343ZM82.6435 51.0983C82.2159 50.1674 81.0642 49.8109 80.1753 50.3343L71.2704 55.5797C70.6526 55.9437 70.3261 56.6465 70.4497 57.3466L72.4994 68.9564C73.1487 72.6357 76.1345 75.4758 79.8804 75.9768L95 78L82.6435 51.0983Z" fill="#F90D01"/>
</svg>
