<svg width="96" height="96" viewBox="0 0 96 96" fill="none" xmlns="http://www.w3.org/2000/svg">
<rect width="96" height="96" fill="#F4F5F8"/>
<path fill-rule="evenodd" clip-rule="evenodd" d="M48.0522 12C57.6396 12 66.3416 15.757 72.7831 21.8756L68.3219 27.52H77.6113C81.6339 33.3316 84 40.3888 84 47.9998C84 56.9276 80.7488 65.0998 75.3768 71.3851L69.6192 66.8114V76.8014C63.6166 81.3214 56.1499 83.9999 48.0522 83.9999C39.1577 83.9999 31.0164 80.7612 24.7421 75.3968L29.1849 69.7869H19.4486C14.8477 63.7393 12.1139 56.1901 12.1139 47.9998C12.1139 40.0293 14.7077 32.6553 19.0896 26.6948L24.4528 30.9523V20.8575C30.7626 15.3446 39.0261 12 48.0522 12ZM65.7461 53.3109H63.1432C60.8475 55.8125 58.7176 57.7088 56.7461 58.9993C54.7742 60.3162 52.242 60.9478 49.3237 60.9478C47.6672 60.9478 46.4055 60.5354 45.4591 59.7102C44.5828 58.8853 44.1094 57.1819 44.1094 54.5749C44.1094 53.9951 44.1094 52.977 44.2668 51.5461C49.008 51.274 53.1092 49.5976 56.5884 46.5774C60.0588 43.5493 61.8727 39.8972 61.8727 35.5785C61.8727 33.3842 61.242 31.6191 59.98 30.3032C58.6395 28.986 56.2731 28.3281 52.715 28.3281C50.5858 28.3281 48.4559 28.7931 46.4843 29.7587C42.5321 31.488 39.4561 34.4286 37.2474 38.5458C34.2419 43.9355 32.8222 49.5188 32.8222 55.286C32.8222 59.5787 33.8473 62.6512 36.0561 64.5211C38.1941 66.3641 41.112 67.2945 44.7401 67.2945C53.03 67.2942 59.9796 62.6245 65.7461 53.3109ZM55.9574 35.0606C55.9574 33.2436 55.3264 32.3391 54.0643 32.3391C52.1624 32.3917 50.3486 34.0159 48.6135 37.229C46.8785 40.4417 45.6953 44.0144 44.8978 47.9206C47.8252 47.728 50.3486 46.3845 52.6362 43.8829C54.8533 41.3547 55.9574 38.4137 55.9574 35.0606Z" fill="#3AC45B"/>
<path fill-rule="evenodd" clip-rule="evenodd" d="M69.4792 76.8188C66.745 78.8735 63.7127 80.5492 60.4528 81.7605L60.4443 81.7523L48.7097 66.8991C53.4862 65.9329 57.7714 63.248 61.6008 58.832L69.5056 66.7936L69.4792 76.8014V76.8188Z" fill="#4AD96C"/>
<path fill-rule="evenodd" clip-rule="evenodd" d="M48.7097 66.899L60.4528 81.7604C56.5533 83.2094 52.3378 83.9997 47.9383 83.9997C39.0438 83.9997 30.9025 80.761 24.6282 75.3966L29.0626 69.7867H29.045L34.7762 63.2734C35.118 63.7391 35.5037 64.1512 35.9419 64.5203C38.0714 66.3633 40.9981 67.2937 44.6266 67.2937C46.0283 67.2937 47.3865 67.1622 48.7097 66.899Z" fill="#3AC45B"/>
<path fill-rule="evenodd" clip-rule="evenodd" d="M61.3907 55.0146L58.4024 44.6211C57.8326 45.3056 57.1847 45.9554 56.4748 46.5781C52.9952 49.5983 48.8945 51.2747 44.1532 51.5468C43.9952 52.9777 43.9952 53.9958 43.9952 54.5756C43.9952 57.1827 44.4685 58.886 45.3364 59.7109C46.2824 60.5361 47.5448 60.9485 49.2095 60.9485C52.1277 60.9485 54.6518 60.3169 56.6325 59C58.1219 58.0164 59.7081 56.691 61.3907 55.0146Z" fill="#2CB64D"/>
<path fill-rule="evenodd" clip-rule="evenodd" d="M29.045 69.7871H19.3263C15.2861 64.4589 12.6835 57.9808 12.1137 50.9144L22.6475 50.1772L32.7255 54.0397C32.7164 54.4607 32.7079 54.8742 32.7079 55.2859C32.7079 58.7271 33.365 61.3957 34.7759 63.2738L29.045 69.7871Z" fill="#43CE64"/>
<path fill-rule="evenodd" clip-rule="evenodd" d="M24.3125 30.9521L22.6478 50.1769L32.7259 54.0394C32.9184 48.7108 34.3469 43.5492 37.1251 38.5457C37.905 37.0885 38.7992 35.7802 39.798 34.6217L24.3125 30.9521Z" fill="#4ADA6C"/>
<path fill-rule="evenodd" clip-rule="evenodd" d="M12.114 50.9151C12.044 49.9581 12 48.9837 12 48.0007C12 40.0303 14.5853 32.674 18.9669 26.7046L24.3125 30.9532L22.6478 50.178L12.114 50.9151Z" fill="#3AC45B"/>
<path fill-rule="evenodd" clip-rule="evenodd" d="M68.34 27.3535L77.4977 27.5201C80.6616 32.0938 82.7996 37.4309 83.5622 43.2074H74.5006L68.34 27.3535Z" fill="#43CE64"/>
<path fill-rule="evenodd" clip-rule="evenodd" d="M24.2953 30.926L24.3393 30.9526V20.8579C27.6686 17.9435 31.5515 15.6345 35.8015 14.1069L44.2933 30.8215C42.6107 31.8308 41.1118 33.0947 39.7977 34.6222L24.3125 30.953L24.2953 30.926Z" fill="#3AC45B"/>
<path fill-rule="evenodd" clip-rule="evenodd" d="M35.8014 14.1062L44.2933 30.8208C44.9503 30.4255 45.6426 30.0745 46.3612 29.7583C48.3419 28.7928 50.4718 28.3278 52.6007 28.3278C53.1005 28.3278 53.5738 28.3363 54.0208 28.3626L59.5067 13.9048C55.8786 12.6668 51.9873 12 47.9386 12C43.6795 11.9997 39.5872 12.7457 35.8014 14.1062Z" fill="#4ADA6C"/>
<path fill-rule="evenodd" clip-rule="evenodd" d="M59.5066 13.9048L54.0206 28.3626C55.554 28.4503 56.8252 28.6876 57.85 29.0738L68.3402 27.353L72.6694 21.8753C68.9445 18.3378 64.4668 15.59 59.5066 13.9048Z" fill="#3AC45B"/>
<path fill-rule="evenodd" clip-rule="evenodd" d="M65.6055 53.3117L74.5007 43.208H83.5624C83.7728 44.7792 83.878 46.3767 83.878 48.0009C83.878 56.9287 80.635 65.101 75.2634 71.3862L69.506 66.8125V66.8306L69.4796 66.8125L61.6012 58.842C63.0033 57.2271 64.3445 55.3834 65.6326 53.3117H65.6055Z" fill="#3AC45B"/>
<path fill-rule="evenodd" clip-rule="evenodd" d="M68.34 27.3535L68.5769 27.5201L74.5006 43.2074L65.6055 53.3111H63.0205L62.9941 53.337L62.9681 53.3636L62.9417 53.3893L62.9153 53.4248L62.8977 53.4514L62.8716 53.4773L62.8449 53.5036L62.8192 53.5303L62.81 53.5388L62.7924 53.5647L62.7664 53.5917L62.7404 53.618L62.7143 53.644L62.7052 53.6525L62.6879 53.6702L62.6615 53.6962L62.6351 53.732L62.6091 53.7576L62.6006 53.7662L62.5827 53.7839C62.5215 53.8543 62.4511 53.9246 62.381 53.9943V54.0035L62.3553 54.0294L62.3286 54.056L62.2762 54.109L62.2501 54.1349L62.2237 54.1609L62.1973 54.1872L62.1713 54.2138L62.1537 54.2394L62.1276 54.266L62.1009 54.2923L62.0748 54.3193L62.066 54.3271L62.0485 54.3452L62.0224 54.3715L61.9957 54.3975L61.9696 54.4234L61.9608 54.4323L61.9432 54.45L61.9172 54.477L61.8996 54.5026L61.8728 54.5289L61.8556 54.5467L61.8468 54.5555L61.82 54.5818L61.7936 54.6074L61.7676 54.6337L61.7236 54.6778L61.7152 54.687L61.6884 54.7129L61.6712 54.7389L61.6448 54.757L61.6184 54.7833L61.5923 54.8096L61.5659 54.8359L61.5399 54.8621L61.5135 54.8884L61.4871 54.914L61.4695 54.9403L61.4428 54.9673L61.4167 54.9847L61.3903 55.0113L58.402 44.6178C61.7409 40.6413 64.2301 31.4943 57.8499 29.0712L68.34 27.3535Z" fill="#4ADA6C"/>
</svg>
