<svg width="96" height="96" viewBox="0 0 96 96" fill="none" xmlns="http://www.w3.org/2000/svg">
<rect width="96" height="96" fill="url(#paint0_linear_3831_3167)"/>
<path d="M71.7331 27.8877C71.1678 27.8887 70.6082 28.001 70.0863 28.2184C69.5644 28.4358 69.0905 28.7539 68.6916 29.1545C68.2943 29.544 67.9786 30.0089 67.7631 30.5219C67.5477 31.0349 67.4367 31.5857 67.4368 32.1422V52.6438C67.4528 55.2127 66.9127 57.7547 65.8533 60.0951C64.8219 62.3821 63.3521 64.4446 61.5271 66.1661C59.6691 67.9091 57.5057 69.2946 55.1454 70.2533C52.6799 71.2587 50.0399 71.7664 47.3774 71.7471C42.7644 71.7471 37.2969 70.2413 33.7415 67.3433C30.8374 64.9798 28.6774 61.828 27.5211 58.2666C27.2355 57.3961 26.6758 56.6415 25.9257 56.1155C25.1747 55.5812 24.2718 55.3026 23.3503 55.3208C22.6663 55.3139 21.9905 55.4695 21.3784 55.7749C20.7723 56.0839 20.2465 56.5299 19.8428 57.0775C19.4383 57.614 19.1691 58.24 19.0578 58.9025C18.9465 59.5651 18.9964 60.2447 19.2034 60.8839C19.7832 62.6965 20.5607 64.4398 21.5218 66.0825C23.1711 68.8795 25.2941 71.3684 27.796 73.4382C30.3381 75.5547 33.2215 77.2237 36.3229 78.3739C39.9016 79.5672 43.6529 80.1608 47.4252 80.1306C51.2242 80.1384 54.988 79.4015 58.5036 77.9616C65.3037 75.2444 70.7691 69.9721 73.7289 63.274C75.2473 59.8927 76.0216 56.2248 75.9996 52.5183V32.1004C75.9973 31.5443 75.8853 30.9941 75.67 30.4814C75.4547 29.9687 75.1402 29.5036 74.7447 29.1127C73.9383 28.3283 72.8581 27.8889 71.7331 27.8877Z" fill="white"/>
<path d="M71.5779 16.4678H57.3565C56.1936 16.4724 55.0786 16.9313 54.2493 17.7465C53.8388 18.1483 53.5126 18.6279 53.29 19.1574C53.0673 19.6868 52.9526 20.2554 52.9526 20.8298C52.9526 21.4042 53.0673 21.9728 53.29 22.5022C53.5126 23.0317 53.8388 23.5114 54.2493 23.9131C55.0845 24.7341 56.2092 25.1935 57.3804 25.1919H71.5779C72.7434 25.1942 73.8633 24.7394 74.6971 23.9251C75.1063 23.5257 75.4321 23.0492 75.6557 22.523C75.8793 21.9968 75.9962 21.4314 75.9997 20.8597V20.8597C76.0052 20.2835 75.8934 19.7122 75.6711 19.1806C75.4506 18.6475 75.1255 18.1639 74.715 17.7585C73.8767 16.937 72.7516 16.4741 71.5779 16.4678V16.4678Z" fill="white"/>
<path d="M23.6447 25.1917H37.8482C38.4284 25.1922 39.003 25.0785 39.5392 24.8571C40.0763 24.6368 40.5654 24.3141 40.9793 23.907C41.3878 23.4999 41.7126 23.0168 41.9354 22.4848C42.1578 21.9575 42.2697 21.39 42.264 20.8177C42.2568 19.6653 41.7926 18.5628 40.9733 17.7523C40.1437 16.9376 39.0289 16.4788 37.8661 16.4736H23.6447C23.0525 16.4474 22.4611 16.5397 21.905 16.7449C21.3489 16.9501 20.8393 17.2641 20.406 17.6687C19.9755 18.0746 19.633 18.5646 19.3996 19.1083C19.1663 19.6521 19.0472 20.238 19.0496 20.8296C19.0493 21.4174 19.1693 21.999 19.4021 22.5386C19.6363 23.0796 19.9778 23.5675 20.406 23.9727C20.8371 24.3795 21.345 24.6964 21.8999 24.9049C22.4572 25.1134 23.0499 25.2109 23.6447 25.1917V25.1917Z" fill="white"/>
<defs>
<linearGradient id="paint0_linear_3831_3167" x1="48" y1="0" x2="48" y2="96" gradientUnits="userSpaceOnUse">
<stop stop-color="#1472BC"/>
<stop offset="1" stop-color="#02A5E2"/>
</linearGradient>
</defs>
</svg>
