<svg width="96" height="96" viewBox="0 0 96 96" fill="none" xmlns="http://www.w3.org/2000/svg">
<rect width="96" height="96" fill="#F4F5F8"/>
<path d="M71.2079 60.7841C69.7933 61.1431 68.7424 60.6645 67.7724 59.8669C66.479 58.8299 65.226 57.7531 63.973 56.6763C62.1946 55.2406 60.295 54.0441 57.8698 54.1239C57.2636 54.1239 56.7785 54.2037 56.3744 53.4858C55.9702 52.6881 56.4552 52.409 56.819 51.9703C58.9207 49.4976 60.3758 46.7458 60.295 43.4755C60.1737 39.567 57.2636 37.8521 53.7472 39.4873C53.3026 39.6867 52.8175 40.4444 52.3729 39.8462C52.0092 39.3676 52.4538 38.7295 52.858 38.2509C53.0196 38.0515 53.1813 37.8521 53.3026 37.6527C55.4043 34.9408 55.4852 32.1091 53.6663 29.1978C52.4538 27.2834 50.9987 25.5685 49.5032 23.8935C49.1799 23.5346 48.9374 23.2953 49.3011 22.6572C50.5137 20.5833 50.2712 19.0279 48.7757 17.8713C47.1185 16.5951 45.0572 16.7148 43.4405 18.2702C42.9554 18.7487 42.4704 18.8285 41.8641 18.7886C39.4795 18.6291 37.0948 18.8285 34.8718 19.7059C33.0933 20.4238 31.5979 20.6232 30.1428 19.2273C29.9003 18.988 29.5365 18.9083 29.1727 18.7886C26.9497 17.9112 24.7671 18.5493 23.2717 20.4637C21.7762 22.378 21.8166 24.3322 23.3525 26.3263C23.6354 26.6852 23.9184 26.8846 23.5142 27.4031C16.2793 35.8181 14.9455 48.9791 16.6835 56.7162C19.0681 67.3646 26.9093 71.5522 29.9811 73.1076C32.5275 74.3838 35.2355 75.341 37.9031 76.3779C44.0063 78.7309 50.4329 79.3691 56.9402 78.8107C62.1138 78.372 63.6497 76.7369 64.5793 71.3927C64.6197 71.0736 64.6197 70.8742 65.0239 70.7945C69.3891 69.7575 71.0058 66.0884 72.7842 62.6985C73.4309 61.4621 72.5417 60.4252 71.2079 60.7841ZM30.6682 70.1564C26.4243 68.0825 23.1908 65.2908 21.0486 61.183C24.3225 64.0146 28.1219 65.211 32.5275 65.0515C31.3958 66.6468 30.5066 68.0825 30.6682 70.1564ZM26.0201 46.7856C23.8375 45.6689 21.9379 44.2731 20.1594 42.5981C19.6744 42.1594 19.4319 41.7605 19.5936 41.0427C20.6445 36.6557 22.2612 32.508 25.0501 28.8787C25.4138 28.4001 25.7776 27.9216 26.5051 28.121C27.4752 28.3603 28.1623 27.9614 28.6069 27.084C31.3149 21.9393 36.0439 20.8625 41.3387 20.8625C42.7533 20.8625 44.0467 21.3012 45.0572 22.2583C46.9973 24.0929 48.8565 25.9674 51.0796 28.0811C50.0287 27.8418 49.3416 27.3233 48.7757 27.8817C48.1694 28.44 48.4523 29.1978 48.6949 29.8359C49.3415 31.5508 50.2308 33.1062 52.0092 33.9038C52.6963 34.2229 52.5346 34.5021 52.4134 35.0604C52.2921 35.6586 52.0092 35.6985 51.4837 35.6187C50.5137 35.4193 49.5841 35.6586 48.6949 36.0973C48.0886 36.4164 47.5631 36.8551 47.6036 37.5729C47.644 38.3706 48.4119 38.5301 49.0182 38.7295C49.4224 38.8492 49.9074 38.8492 50.6349 38.889C48.3715 41.6409 45.5826 39.9659 43.0363 40.0456C43.3596 41.282 44.5722 41.1623 45.3805 41.7605C39.1561 43.8743 33.1742 45.2302 28.8898 38.0914C28.324 41.8004 32.7296 44.632 39.7624 45.4695C36.0843 48.8994 31.0724 49.3381 26.0201 46.7856ZM58.3953 66.0884C53.9088 66.5271 49.5841 65.9289 45.421 64.1342C44.2893 63.6556 43.1171 63.1771 41.8237 62.6586C44.2084 61.4223 46.3506 59.9466 48.1694 58.1121C49.9883 56.2376 51.4837 54.1239 52.6963 51.4119C54.2322 55.5995 56.7381 58.7502 59.6887 61.5818C59.9716 61.861 60.1737 62.2199 60.3354 62.5788C61.3863 64.7324 60.78 65.8491 58.3953 66.0884Z" fill="#0A0104"/>
<path d="M62 23.6L65.7395 26.4L66.7045 31.52L69.1976 29.4L73.7815 33C77.2395 27.96 81.3409 22.28 85 17C77.2797 19.2 62 23.6 62 23.6ZM72.8566 31.12L67.951 27.68L66.8654 30.8L66.7045 26.8L83.0297 18.2L72.8566 31.12Z" fill="#090204"/>
<path d="M44 31.4659C43.8768 33.0936 43.3839 34.6473 42.1106 35.9421C41.0016 37.0889 39.4408 37.3109 38.1264 36.571C36.9353 35.9051 36.6888 34.7953 37.3871 33.2786C38.0443 31.8358 39.1533 30.689 40.5498 29.8012C41.2891 29.3202 42.0695 28.6914 43.0553 29.1723C43.9589 29.6532 43.9179 30.578 44 31.4659Z" fill="#0A0205"/>
</svg>
