<svg width="203" height="56" viewBox="0 0 203 56" fill="none" xmlns="http://www.w3.org/2000/svg">
<path d="M37.5948 10.3277C40.8851 9.83695 44.586 10.6412 47.5699 12.1112C51.804 14.197 52.972 18.5443 47.4693 19.9908C43.619 18.9046 41.783 16.6152 37.116 17.7661C31.4306 19.168 28.067 24.6153 29.3243 30.3237C30.641 36.3024 37.145 39.9292 42.8719 37.7793C44.4119 37.2013 45.7473 36.3633 47.3822 35.9829L47.4648 35.9642C51.2127 36.8069 52.3984 40.0216 49.3393 42.6877C46.0514 45.0493 42.4904 45.6666 38.5431 45.8187C38.589 47.7294 38.7445 49.1573 38.1741 50.9906C35.9614 53.2105 26.8219 55.7564 23.6075 55.9991C23.0731 55.7745 22.5868 55.4756 22.0846 55.1855C21.3056 52.8923 21.6602 44.0283 21.6561 41.2409L21.6372 32.8189C21.6257 26.7277 21.6026 21.6519 25.7419 16.6436C28.7037 13.05 32.9658 10.779 37.5948 10.3277Z" fill="#1F4D8E"/>
<path d="M24.6813 0.0122953C24.7777 0.00724234 24.8743 0.00349825 24.9709 0.00137547C30.3877 -0.120359 29.0163 7.86977 28.9734 11.4549C23.1638 16.2083 19.1991 22.0212 20.2665 29.9174L16.4715 23.3813C15.3386 21.3856 11.2077 15.3325 12.1343 13.6411C16.2507 6.12682 20.4006 15.5721 21.621 17.8383C21.8761 13.2951 21.1341 6.60529 22.0687 2.1884C22.3017 1.08772 23.7085 0.415473 24.6813 0.0122953Z" fill="#1F4D8E"/>
<path d="M48.2943 22.2601C51.4269 21.7537 54.3786 23.8801 54.8975 27.017C55.4163 30.154 53.3069 33.1209 50.1788 33.6544C47.0318 34.1908 44.049 32.0613 43.5272 28.9055C43.0052 25.7496 45.1429 22.7697 48.2943 22.2601Z" fill="#FDCA04"/>
<path d="M68.141 32.4357L67.3961 42.8308C67.2607 44.4787 66.5383 45.3026 65.229 45.3026C64.597 45.3026 64.0891 45.0882 63.7053 44.6592C63.3442 44.2303 63.1636 43.6773 63.1636 43.0001C63.1636 42.8872 63.1636 42.7969 63.1636 42.7292C63.1636 42.6615 63.1636 42.5825 63.1636 42.4922L64.4841 27.5598C64.5518 26.6794 64.8002 25.9345 65.229 25.325C65.6806 24.693 66.3803 24.377 67.3284 24.377C68.0056 24.377 68.5699 24.5801 69.0214 24.9864C69.4729 25.3702 69.8454 25.991 70.1388 26.8487L73.8632 36.9391L77.5878 26.7472C77.8587 25.9345 78.209 25.3363 78.6375 24.9526C79.0894 24.5688 79.6533 24.377 80.3305 24.377C81.2565 24.377 81.9219 24.6817 82.3283 25.2912C82.7574 25.9007 83.0055 26.623 83.0732 27.4582L84.3937 42.4922C84.4165 42.5825 84.4276 42.6615 84.4276 42.7292C84.4276 42.7969 84.4276 42.8872 84.4276 43.0001C84.4276 43.6773 84.2362 44.2303 83.852 44.6592C83.4912 45.0882 82.9944 45.3026 82.3621 45.3026C81.7305 45.3026 81.2226 45.0994 80.8384 44.6931C80.4549 44.2642 80.2407 43.6434 80.1951 42.8308L79.4501 32.4357L75.9964 41.4425C75.5224 42.6841 74.7892 43.3048 73.7955 43.3048C72.7797 43.3048 72.0237 42.6841 71.527 41.4425L68.141 32.4357ZM86.6871 37.5824C86.6871 35.4831 87.2517 33.8804 88.3801 32.7743C89.5314 31.6456 91.1677 31.0813 93.2899 31.0813C95.412 31.0813 97.0373 31.6456 98.1657 32.7743C99.317 33.8804 99.8926 35.4831 99.8926 37.5824V38.7676C99.8926 40.8895 99.317 42.5148 98.1657 43.6434C97.0373 44.7496 95.412 45.3026 93.2899 45.3026C91.1677 45.3026 89.5314 44.7496 88.3801 43.6434C87.2517 42.5148 86.6871 40.8895 86.6871 38.7676V37.5824ZM95.3892 37.8533C95.3892 36.8149 95.2199 36.0813 94.8813 35.6524C94.5655 35.201 94.0348 34.9752 93.2899 34.9752C92.5449 34.9752 92.0032 35.201 91.6646 35.6524C91.3488 36.0813 91.1905 36.8149 91.1905 37.8533V38.5305C91.2133 39.5915 91.3709 40.3364 91.6646 40.7653C91.9804 41.1942 92.5111 41.4087 93.256 41.4087C94.0237 41.4087 94.5655 41.1829 94.8813 40.7314C95.2199 40.28 95.3892 39.5463 95.3892 38.5305V37.8533ZM106.06 32.1309C106.692 31.7472 107.301 31.4763 107.889 31.3183C108.476 31.1603 109.176 31.0813 109.988 31.0813C112.494 31.0813 114.062 32.0971 114.695 34.1287C114.83 34.5124 114.92 34.9978 114.966 35.5847C115.033 36.1716 115.067 36.9165 115.067 37.8195V42.5599C115.067 43.4403 114.864 44.1175 114.458 44.5915C114.074 45.0656 113.532 45.3026 112.832 45.3026C112.132 45.3026 111.58 45.0656 111.173 44.5915C110.789 44.1175 110.598 43.4403 110.598 42.5599V38.1581C110.598 37.5937 110.575 37.1197 110.53 36.7359C110.507 36.3522 110.439 36.0475 110.327 35.8217C110.101 35.2574 109.616 34.9752 108.871 34.9752C108.464 34.9752 108.114 35.0429 107.821 35.1784C107.55 35.2912 107.335 35.4944 107.178 35.7879C106.997 36.0587 106.861 36.4312 106.771 36.9052C106.704 37.3793 106.67 37.9888 106.67 38.7337V42.5599C106.67 43.4403 106.478 44.1175 106.094 44.5915C105.71 45.0656 105.168 45.3026 104.469 45.3026C103.746 45.3026 103.193 45.0656 102.81 44.5915C102.426 44.1175 102.234 43.4403 102.234 42.5599V32.9436C102.234 32.1309 102.437 31.623 102.844 31.4199C103.25 31.1941 103.78 31.0813 104.435 31.0813C104.796 31.0813 105.134 31.1603 105.451 31.3183C105.79 31.4537 105.993 31.7246 106.06 32.1309ZM121.727 39.5802V39.8172C121.727 40.4267 121.964 40.8895 122.438 41.2055C122.935 41.5215 123.635 41.6795 124.537 41.6795C125.146 41.6795 125.768 41.6344 126.399 41.5441C127.032 41.4312 127.54 41.3071 127.923 41.1716C128.104 41.1265 128.262 41.1039 128.397 41.1039C128.849 41.1039 129.233 41.2732 129.548 41.6118C129.887 41.9504 130.056 42.368 130.056 42.8646C130.056 43.1129 130 43.3613 129.887 43.6096C129.774 43.8579 129.616 44.0498 129.413 44.1852C129.007 44.5238 128.329 44.7947 127.381 44.9978C126.433 45.201 125.395 45.3026 124.266 45.3026C122.031 45.3026 120.304 44.7608 119.086 43.6773C117.889 42.5938 117.291 41.0588 117.291 39.0723V37.8533C117.291 35.6637 117.867 33.9933 119.018 32.842C120.169 31.6682 121.817 31.0813 123.961 31.0813C126.219 31.0813 127.867 31.7359 128.905 33.0452C129.266 33.4966 129.571 34.1174 129.819 34.9075C130.09 35.6975 130.226 36.4538 130.226 37.1761C130.226 38.0791 129.921 38.7111 129.311 39.0723C128.702 39.4109 128.014 39.5802 127.246 39.5802H121.727ZM126.196 36.7021C126.084 35.8217 125.858 35.201 125.519 34.8398C125.18 34.4786 124.672 34.298 123.995 34.298C123.25 34.298 122.697 34.4899 122.336 34.8736C121.975 35.2348 121.749 35.8443 121.659 36.7021H126.196ZM135.555 44.8963L131.796 34.535C131.728 34.3093 131.661 34.0722 131.593 33.824C131.548 33.5531 131.525 33.3161 131.525 33.1129C131.525 32.5937 131.751 32.1309 132.202 31.7246C132.654 31.3183 133.162 31.1151 133.726 31.1151C134.855 31.1151 135.611 31.8036 135.995 33.1806L137.959 39.5802L139.956 33.0452C140.34 31.7585 141.051 31.1151 142.09 31.1151C142.654 31.1151 143.139 31.307 143.546 31.6908C143.975 32.0745 144.189 32.526 144.189 33.0452C144.189 33.4966 144.087 33.9481 143.884 34.3996L139.381 45.8782C139.065 46.6908 138.794 47.3229 138.568 47.7744C138.365 48.2258 138.173 48.5983 137.993 48.8918C137.812 49.1852 137.575 49.5125 137.281 49.8737C136.807 50.4155 136.255 50.8444 135.622 51.1604C135.013 51.4764 134.392 51.6344 133.76 51.6344C133.286 51.6344 132.891 51.4651 132.575 51.1265C132.281 50.8105 132.135 50.3703 132.135 49.806C132.135 49.3545 132.225 48.9933 132.406 48.7225C132.609 48.4516 132.958 48.192 133.455 47.9437C133.817 47.7631 134.11 47.5148 134.336 47.1988C134.584 46.8827 134.855 46.4087 135.148 45.7766L135.555 44.8963ZM146.596 41.9504V27.7291C146.596 26.6456 146.822 25.8781 147.274 25.4266C147.748 24.9752 148.515 24.7494 149.576 24.7494H152.793C154.96 24.7494 156.721 25.0316 158.075 25.5959C159.429 26.1377 160.422 27.0745 161.055 28.4063C161.709 29.7156 162.037 31.5215 162.037 33.824V35.8556C162.037 38.1581 161.709 39.9753 161.055 41.3071C160.422 42.6164 159.429 43.5531 158.075 44.1175C156.721 44.6592 154.96 44.9301 152.793 44.9301H149.034C148.108 44.9301 147.465 44.6366 147.104 44.0498C146.766 43.4403 146.596 42.7405 146.596 41.9504ZM151.303 40.8669H153.436C154.587 40.8669 155.434 40.6525 155.976 40.2235C156.517 39.7721 156.867 39.1626 157.025 38.3951C157.206 37.6276 157.296 36.7359 157.296 35.7201V33.9594C157.296 32.9436 157.206 32.052 157.025 31.2844C156.867 30.5169 156.517 29.9188 155.976 29.4898C155.434 29.0384 154.587 28.8126 153.436 28.8126H151.303V40.8669ZM172.248 36.2619V36.0587C172.226 35.4944 172.045 35.0994 171.706 34.8736C171.39 34.6253 170.849 34.5012 170.081 34.5012C169.675 34.5012 169.223 34.5576 168.727 34.6705C168.23 34.7608 167.79 34.8962 167.406 35.0768C167.158 35.1671 166.955 35.2122 166.797 35.2122C166.345 35.2122 165.95 35.0429 165.611 34.7043C165.296 34.3657 165.137 33.9707 165.137 33.5192C165.137 32.9323 165.318 32.5034 165.679 32.2325C166.131 31.8939 166.808 31.623 167.711 31.4199C168.637 31.1941 169.63 31.0813 170.69 31.0813C172.045 31.0813 173.162 31.2393 174.043 31.5553C174.923 31.8713 175.6 32.368 176.074 33.0452C176.368 33.4741 176.56 33.9707 176.65 34.535C176.74 35.0994 176.785 36.0249 176.785 37.3116V43.3725C176.785 43.9594 176.582 44.4335 176.176 44.7947C175.792 45.1333 175.262 45.3026 174.584 45.3026C174.065 45.3026 173.659 45.1784 173.365 44.9301C173.072 44.6818 172.858 44.2642 172.722 43.6773C172.226 44.2416 171.661 44.6592 171.029 44.9301C170.397 45.1784 169.596 45.3026 168.625 45.3026C167.09 45.3026 165.916 44.9301 165.104 44.1852C164.291 43.4403 163.885 42.3567 163.885 40.9346C163.885 39.1965 164.415 37.9549 165.476 37.21C165.996 36.8714 166.65 36.6231 167.44 36.4651C168.253 36.307 169.223 36.228 170.352 36.228C170.465 36.228 170.567 36.228 170.657 36.228C170.77 36.228 170.939 36.228 171.165 36.228C171.39 36.228 171.752 36.2393 172.248 36.2619ZM172.316 38.8353C172.135 38.8127 171.989 38.8014 171.876 38.8014C171.763 38.8014 171.639 38.8014 171.503 38.8014C171.029 38.8014 170.521 38.824 169.979 38.8691C169.46 38.9143 169.02 39.061 168.659 39.3093C168.32 39.5351 168.151 39.9188 168.151 40.4606C168.151 40.9346 168.286 41.2845 168.557 41.5102C168.828 41.7134 169.246 41.815 169.81 41.815C170.262 41.815 170.668 41.7247 171.029 41.5441C171.413 41.3635 171.718 41.1152 171.943 40.7992C172.192 40.4606 172.316 40.0768 172.316 39.6479V38.8353ZM182.287 44.8963L178.528 34.535C178.461 34.3093 178.393 34.0722 178.325 33.824C178.28 33.5531 178.258 33.3161 178.258 33.1129C178.258 32.5937 178.484 32.1309 178.935 31.7246C179.387 31.3183 179.895 31.1151 180.458 31.1151C181.588 31.1151 182.344 31.8036 182.727 33.1806L184.691 39.5802L186.689 33.0452C187.073 31.7585 187.784 31.1151 188.822 31.1151C189.387 31.1151 189.872 31.307 190.278 31.6908C190.707 32.0745 190.921 32.526 190.921 33.0452C190.921 33.4966 190.82 33.9481 190.617 34.3996L186.113 45.8782C185.797 46.6908 185.526 47.3229 185.301 47.7744C185.097 48.2258 184.906 48.5983 184.725 48.8918C184.545 49.1852 184.307 49.5125 184.014 49.8737C183.54 50.4155 182.987 50.8444 182.355 51.1604C181.745 51.4764 181.125 51.6344 180.492 51.6344C180.018 51.6344 179.624 51.4651 179.307 51.1265C179.014 50.8105 178.867 50.3703 178.867 49.806C178.867 49.3545 178.958 48.9933 179.138 48.7225C179.341 48.4516 179.691 48.192 180.188 47.9437C180.549 47.7631 180.843 47.5148 181.068 47.1988C181.317 46.8827 181.588 46.4087 181.881 45.7766L182.287 44.8963Z" fill="#1F4D8E"/>
</svg>
