<svg width="96" height="96" viewBox="0 0 96 96" fill="none" xmlns="http://www.w3.org/2000/svg">
<g clip-path="url(#clip0_1697_1919)">
<rect width="96" height="96" fill="#F5F5F5"/>
<path d="M78.5807 109.2H16.2194C-3.29027 109.2 -19.2 93.3395 -19.2 74.1463V21.8533C-19.2 2.54516 -3.29027 -13.2002 16.2194 -13.2002H78.5807C98.0904 -13.2002 114 2.54516 114 21.8533V74.1463C114 93.3395 97.9742 109.2 78.5807 109.2Z" fill="#F8DA5E"/>
<path d="M25.7355 56.534C25.4899 56.2894 25.3059 55.9841 25.1218 55.6786C24.999 55.373 24.9377 55.0065 24.9377 54.6399C24.9377 54.2733 24.999 53.9068 25.1218 53.6012C25.2446 53.2957 25.4287 52.9904 25.7355 52.7458L60.2836 18.2251C60.5292 17.9805 60.8361 17.7972 61.1427 17.6139C61.4496 17.4919 61.818 17.4307 62.1861 17.4307C62.5542 17.4307 62.9223 17.4919 63.2292 17.6139C63.5361 17.7362 63.8429 17.9195 64.0883 18.2251L84.7069 38.8153C84.9522 39.0596 85.1363 39.3651 85.3204 39.6707C85.4432 39.9762 85.5044 40.3428 85.5044 40.7094C85.5044 41.0759 85.4432 41.4425 85.3204 41.7481C85.1978 42.0536 85.0135 42.3589 84.7069 42.6035L50.1585 77.1242C49.9132 77.3688 49.6063 77.552 49.2995 77.6741C48.9926 77.7963 48.6245 77.8573 48.2563 77.8573C47.888 77.8573 47.5814 77.7963 47.213 77.6741C46.9064 77.552 46.5995 77.3688 46.3539 77.1242L25.7355 56.534Z" fill="white"/>
<path d="M25.7355 56.534C25.4899 56.2894 25.3059 55.9841 25.1218 55.6786C24.999 55.373 24.9377 55.0065 24.9377 54.6399C24.9377 54.2733 24.999 53.9068 25.1218 53.6012C25.2446 53.2957 25.4287 52.9904 25.7355 52.7458L60.2836 18.2251C60.5292 17.9805 60.8361 17.7972 61.1427 17.6139C61.4496 17.4919 61.818 17.4307 62.1861 17.4307C62.5542 17.4307 62.9223 17.4919 63.2292 17.6139C63.5361 17.7362 63.8429 17.9195 64.0883 18.2251L84.7069 38.8153C84.9522 39.0596 85.1363 39.3651 85.3204 39.6707C85.4432 39.9762 85.5044 40.3428 85.5044 40.7094C85.5044 41.0759 85.4432 41.4425 85.3204 41.7481C85.1978 42.0536 85.0135 42.3589 84.7069 42.6035L50.1585 77.1242C49.9132 77.3688 49.6063 77.552 49.2995 77.6741C48.9926 77.7963 48.6245 77.8573 48.2563 77.8573C47.888 77.8573 47.5814 77.7963 47.213 77.6741C46.9064 77.552 46.5995 77.3688 46.3539 77.1242L25.7355 56.534Z" fill="white"/>
<path d="M25.7355 56.534C25.4899 56.2894 25.3059 55.9841 25.1218 55.6786C24.999 55.373 24.9377 55.0065 24.9377 54.6399C24.9377 54.2733 24.999 53.9068 25.1218 53.6012C25.2446 53.2957 25.4287 52.9904 25.7355 52.7458L60.2836 18.2251C60.5292 17.9805 60.8361 17.7972 61.1427 17.6139C61.4496 17.4919 61.818 17.4307 62.1861 17.4307C62.5542 17.4307 62.9223 17.4919 63.2292 17.6139C63.5361 17.7362 63.8429 17.9195 64.0883 18.2251L84.7069 38.8153C84.9522 39.0596 85.1363 39.3651 85.3204 39.6707C85.4432 39.9762 85.5044 40.3428 85.5044 40.7094C85.5044 41.0759 85.4432 41.4425 85.3204 41.7481C85.1978 42.0536 85.0135 42.3589 84.7069 42.6035L50.1585 77.1242C49.9132 77.3688 49.6063 77.552 49.2995 77.6741C48.9926 77.7963 48.6245 77.8573 48.2563 77.8573C47.888 77.8573 47.5814 77.7963 47.213 77.6741C46.9064 77.552 46.5995 77.3688 46.3539 77.1242L25.7355 56.534Z" fill="white"/>
<path d="M25.7355 56.534C25.4899 56.2894 25.3059 55.9841 25.1218 55.6786C24.999 55.373 24.9377 55.0065 24.9377 54.6399C24.9377 54.2733 24.999 53.9068 25.1218 53.6012C25.2446 53.2957 25.4287 52.9904 25.7355 52.7458L60.2836 18.2251C60.5292 17.9805 60.8361 17.7972 61.1427 17.6139C61.4496 17.4919 61.818 17.4307 62.1861 17.4307C62.5542 17.4307 62.9223 17.4919 63.2292 17.6139C63.5361 17.7362 63.8429 17.9195 64.0883 18.2251L84.7069 38.8153C84.9522 39.0596 85.1363 39.3651 85.3204 39.6707C85.4432 39.9762 85.5044 40.3428 85.5044 40.7094C85.5044 41.0759 85.4432 41.4425 85.3204 41.7481C85.1978 42.0536 85.0135 42.3589 84.7069 42.6035L50.1585 77.1242C49.9132 77.3688 49.6063 77.552 49.2995 77.6741C48.9926 77.7963 48.6245 77.8573 48.2563 77.8573C47.888 77.8573 47.5814 77.7963 47.213 77.6741C46.9064 77.552 46.5995 77.3688 46.3539 77.1242L25.7355 56.534Z" fill="white"/>
<path fill-rule="evenodd" clip-rule="evenodd" d="M61.7583 18.9091C61.507 19.0616 61.3842 19.1458 61.2982 19.2313L26.6945 53.8073L26.6317 53.8576C26.573 53.9043 26.5144 53.977 26.4536 54.1285C26.4111 54.2344 26.372 54.4153 26.372 54.6369C26.372 54.8087 26.3955 54.9563 26.426 55.0632C26.5793 55.3137 26.6638 55.4357 26.7498 55.5213L47.3682 76.1117C47.3684 76.1117 47.3682 76.1115 47.3682 76.1117C47.4446 76.1876 47.5634 76.2677 47.711 76.331C47.9433 76.4053 48.0875 76.4267 48.2567 76.4267C48.4791 76.4267 48.6611 76.3878 48.7672 76.3456C48.9309 76.2804 49.0623 76.1939 49.1447 76.1117C49.1449 76.1117 49.1447 76.112 49.1447 76.1117L83.7483 41.5357L83.8114 41.4854C83.8701 41.4387 83.9287 41.366 83.9895 41.2148C84.032 41.1089 84.0708 40.928 84.0708 40.7064C84.0708 40.5343 84.0474 40.387 84.0171 40.2801C83.8638 40.0296 83.7791 39.9073 83.6933 39.8218L63.0178 19.1747L62.9688 19.1137C62.9222 19.0556 62.8489 18.9972 62.6969 18.9364C62.5908 18.8942 62.4091 18.8553 62.1864 18.8553C62.0138 18.8553 61.8655 18.8788 61.7583 18.9091ZM60.6107 16.2852C61.118 16.0832 61.6726 16 62.1864 16C62.7003 16 63.2548 16.0832 63.7622 16.2852C64.2044 16.4615 64.7187 16.7516 65.1515 17.2613L85.7212 37.8028C85.7214 37.8031 85.7206 37.8023 85.7212 37.8028C86.0935 38.1738 86.3578 38.6126 86.5255 38.8916C86.5341 38.9059 86.5424 38.9197 86.5505 38.933L86.6094 39.031L86.6522 39.1374C86.855 39.6424 86.9387 40.1946 86.9387 40.7064C86.9387 41.2179 86.855 41.7701 86.6522 42.2751C86.4757 42.7149 86.1847 43.2265 85.674 43.6569L51.1728 78.1307C50.7642 78.5374 50.2822 78.8174 49.8324 78.9968C49.3251 79.1989 48.7703 79.282 48.2567 79.282C47.6998 79.282 47.2376 79.184 46.7599 79.0255L46.72 79.0122L46.6809 78.9968C46.2309 78.8174 45.7489 78.5377 45.3403 78.1307L24.722 57.5405C24.3489 57.169 24.0855 56.7307 23.9176 56.4515C23.909 56.4374 23.9007 56.4233 23.8926 56.41L23.8334 56.312L23.7909 56.2056C23.5878 55.7006 23.5042 55.1484 23.5042 54.6369C23.5042 54.1251 23.5878 53.5729 23.7909 53.0679C23.9674 52.6284 24.2584 52.1168 24.7689 51.6861L59.2701 17.2123C59.6432 16.8411 60.0832 16.5788 60.3638 16.4114C60.3781 16.4031 60.3919 16.3947 60.4055 16.3866L60.504 16.3277L60.6107 16.2852Z" fill="#030608"/>
<path d="M49.7071 77.4101C49.4673 77.6484 49.1672 77.8272 48.8673 78.0061C48.5673 78.1252 48.2075 78.1849 47.8474 78.1849C47.4876 78.1849 47.1876 78.1252 46.8278 78.0061C46.5277 77.8869 46.2279 77.7081 45.9878 77.4101L12.2139 43.7312C11.734 43.2541 11.4341 42.5984 11.4341 41.8832C11.4341 41.1678 11.734 40.5121 12.2139 40.0353L32.4303 19.9472C32.6702 19.7087 32.9703 19.5298 33.2701 19.3512C33.5702 19.2318 33.9299 19.1724 34.29 19.1724C34.6498 19.1724 34.9499 19.2318 35.3097 19.3512C35.6097 19.4704 35.9096 19.6492 36.1497 19.9472L69.9235 53.6261C70.4034 54.1029 70.7033 54.7587 70.7033 55.4741C70.7033 56.1892 70.4034 56.8449 69.9235 57.3217L49.7071 77.4101Z" fill="white"/>
<path d="M49.7071 77.4101C49.4673 77.6484 49.1672 77.8272 48.8673 78.0061C48.5673 78.1252 48.2075 78.1849 47.8474 78.1849C47.4876 78.1849 47.1876 78.1252 46.8278 78.0061C46.5277 77.8869 46.2279 77.7081 45.9878 77.4101L12.2139 43.7312C11.734 43.2541 11.4341 42.5984 11.4341 41.8832C11.4341 41.1678 11.734 40.5121 12.2139 40.0353L32.4303 19.9472C32.6702 19.7087 32.9703 19.5298 33.2701 19.3512C33.5702 19.2318 33.9299 19.1724 34.29 19.1724C34.6498 19.1724 34.9499 19.2318 35.3097 19.3512C35.6097 19.4704 35.9096 19.6492 36.1497 19.9472L69.9235 53.6261C70.4034 54.1029 70.7033 54.7587 70.7033 55.4741C70.7033 56.1892 70.4034 56.8449 69.9235 57.3217L49.7071 77.4101Z" fill="white"/>
<path fill-rule="evenodd" clip-rule="evenodd" d="M33.8833 20.6417C33.6398 20.7893 33.5237 20.8693 33.4432 20.9494L13.2267 41.0377C12.9979 41.2651 12.8679 41.5641 12.8679 41.8749C12.8679 42.1859 12.9979 42.485 13.2267 42.7123L47.0577 76.448L47.1065 76.5088C47.1443 76.5554 47.2029 76.605 47.3244 76.6574C47.5486 76.7288 47.686 76.7489 47.8474 76.7489C48.0119 76.7489 48.1522 76.727 48.2539 76.6988C48.4974 76.5513 48.6134 76.4712 48.6939 76.3912L68.9103 56.3031C69.1392 56.0755 69.2693 55.7767 69.2693 55.4657C69.2693 55.1547 69.1392 54.8559 68.9103 54.6285L35.0794 20.8925L35.0307 20.8318C34.9929 20.7851 34.9342 20.7356 34.8127 20.6832C34.5885 20.6118 34.4511 20.5917 34.2897 20.5917C34.1252 20.5917 33.9849 20.6138 33.8833 20.6417ZM32.7385 18.0169C33.2385 17.8179 33.7844 17.7363 34.2897 17.7363C34.838 17.7363 35.2932 17.8328 35.7622 17.9882L35.8021 18.0012L35.8412 18.0169C36.2764 18.1897 36.784 18.4752 37.2115 18.9773L70.9363 52.6072C70.9366 52.6075 70.9361 52.607 70.9363 52.6072C71.6668 53.3336 72.1372 54.3464 72.1372 55.4657C72.1372 56.5855 71.6674 57.5978 70.9363 58.3242L50.72 78.4122C50.3524 78.7775 49.9188 79.0354 49.645 79.1983C49.6307 79.2067 49.6171 79.2147 49.6038 79.2228L49.5053 79.2815L49.3987 79.3237C48.8986 79.5226 48.3527 79.6042 47.8474 79.6042C47.2991 79.6042 46.8439 79.5078 46.3749 79.3527L46.335 79.3394L46.2959 79.3237C45.8608 79.1509 45.3531 78.8654 44.9256 78.3632L11.2009 44.7334C11.2012 44.7336 11.2006 44.7331 11.2009 44.7334C10.4704 44.007 10 42.9941 10 41.8749C10 40.7554 10.4699 39.7428 11.2009 39.0164L31.4172 18.9283C31.7848 18.5631 32.2181 18.3052 32.4921 18.1425C32.5064 18.1339 32.52 18.1258 32.5333 18.118L32.6318 18.0591L32.7385 18.0169Z" fill="#030608"/>
<path d="M55.408 64.8571C56.4639 64.8571 57.3199 64.0048 57.3199 62.9534C57.3199 61.9021 56.4639 61.0498 55.408 61.0498C54.3521 61.0498 53.4961 61.9021 53.4961 62.9534C53.4961 64.0048 54.3521 64.8571 55.408 64.8571Z" fill="black"/>
<path d="M72.1628 25.7891L66.7551 20.4048L51.884 35.2116L57.2916 40.5959L72.1628 25.7891Z" fill="black"/>
</g>
<defs>
<clipPath id="clip0_1697_1919">
<rect width="96" height="96" fill="white"/>
</clipPath>
</defs>
</svg>
