<svg width="96" height="96" viewBox="0 0 96 96" fill="none" xmlns="http://www.w3.org/2000/svg">
<path d="M72 66.5973C72.0111 74.5478 66.7442 81 60.2435 81H33C33 72.7157 38.4913 66 45.2651 66H71.9991L72 66.5973Z" fill="#007DEE"/>
<path d="M24 72L24 24C31.1797 24 37 29.5132 37 36.314V59.686C37 66.4868 31.1797 72 24 72Z" fill="#006CCD"/>
<path d="M37 48C29.8203 48 24 42.1564 24 34.948L24 24C31.1797 24 37 29.8436 37 37.0521V48Z" fill="#00E5BA"/>
<path d="M33 15H59.6842C66.486 15 72 20.8203 72 28H45.3158C38.514 28 33 22.1797 33 15Z" fill="#007DEE"/>
<path d="M66.6154 17C72.3269 21.0196 73.7151 28.9317 69.7157 34.6723L54.1607 57L52.5417 55.8606C47.7242 52.4703 46.5535 45.7967 49.9267 40.9548L66.6154 17Z" fill="#006CCD"/>
<path d="M52.5018 37L69.5773 61.0663C73.5839 66.7134 72.5079 74.7826 67.1858 79L50.0784 54.191C47.3527 50.2382 47.3036 44.8557 49.9565 40.8464L52.5018 37Z" fill="#00E5BA"/>
<path d="M67.6484 79L61 66H71.956C71.956 66 72.3239 69.2177 70.9326 73.3243C69.5413 77.4307 67.6484 79 67.6484 79Z" fill="#14B2C6"/>
<path d="M66.4518 17C66.4518 17 68.7545 18.4802 70.4513 21.6275C72.1481 24.7748 71.9965 28 71.9965 28H59L66.4518 17Z" fill="#1891FF"/>
</svg>
