<svg width="96" height="96" viewBox="0 0 96 96" fill="none" xmlns="http://www.w3.org/2000/svg">
<g clip-path="url(#clip0_4969_1603)">
<path d="M67.2 0H28.8C12.8942 0 0 12.8942 0 28.8V67.2C0 83.1058 12.8942 96 28.8 96H67.2C83.1058 96 96 83.1058 96 67.2V28.8C96 12.8942 83.1058 0 67.2 0Z" fill="white"/>
<path fill-rule="evenodd" clip-rule="evenodd" d="M45.9974 29.9608C59.5622 30.6577 66.3038 19.5046 67.3598 14.5477C59.887 13.4634 46.8098 18.3429 45.3478 29.2636C45.2666 28.1793 45.3478 27.1725 45.5102 26.2429C44.9417 24.3841 44.0482 23.0674 42.4236 21.5958C40.9615 20.9762 38.6062 21.5958 39.3372 22.5253C44.2106 26.4753 44.0482 29.3411 44.6167 31.1224C45.1042 31.1224 45.5914 31.1999 46.0788 31.1999C46.0788 30.7353 46.0788 30.3479 45.9974 29.9608Z" fill="url(#paint0_linear_4969_1603)"/>
<path fill-rule="evenodd" clip-rule="evenodd" d="M48 31.2002C62.6143 31.2002 74.4 42.4502 74.4 56.4002C74.4 70.3502 62.5356 81.6002 48 81.6002C33.4642 81.6002 21.6 70.2751 21.6 56.4002C21.6 42.4502 33.4642 31.2002 48 31.2002Z" fill="url(#paint1_linear_4969_1603)"/>
<path d="M36.8756 65.1045C31.801 65.1045 29.5428 60.7171 29.5428 56.3553C29.5428 51.9933 31.801 47.6313 36.8756 47.6313C41.9235 47.6313 44.2083 51.9933 44.2083 56.3553C44.2083 60.7171 41.9235 65.1045 36.8756 65.1045ZM36.8756 61.9092C39.3994 61.9092 40.3558 59.4746 40.3558 56.3553C40.3558 53.2361 39.3994 50.8267 36.8756 50.8267C34.3251 50.8267 33.3687 53.2361 33.3687 56.3553C33.3687 59.4746 34.3251 61.9092 36.8756 61.9092Z" fill="white"/>
<path d="M52.6989 56.061C49.9891 56.061 48.209 54.2606 48.209 51.9021C48.209 49.5182 49.9891 47.6416 52.6989 47.6416C55.4354 47.6416 57.2155 49.5182 57.2155 51.9021C57.2155 54.2606 55.4354 56.061 52.6989 56.061ZM52.9646 64.8102H50.9721L62.2898 47.895H64.3091L52.9646 64.8102ZM62.4494 65.1146C59.7393 65.1146 57.9595 63.2886 57.9595 60.9302C57.9595 58.5462 59.7393 56.6697 62.4494 56.6697C65.1592 56.6697 66.9657 58.5462 66.9657 60.9302C66.9657 63.2886 65.1592 65.1146 62.4494 65.1146ZM52.6989 54.083C53.921 54.083 54.7977 53.2206 54.7977 51.9021C54.7977 50.4818 53.921 49.6449 52.6989 49.6449C51.5035 49.6449 50.6001 50.4818 50.6001 51.9021C50.6001 53.2206 51.5035 54.083 52.6989 54.083ZM62.4494 63.1365C63.6715 63.1365 64.5748 62.2996 64.5748 60.9302C64.5748 59.5353 63.6715 58.6732 62.4494 58.6732C61.2273 58.6732 60.3503 59.5353 60.3503 60.9302C60.3503 62.2996 61.2273 63.1365 62.4494 63.1365Z" fill="white"/>
</g>
<defs>
<linearGradient id="paint0_linear_4969_1603" x1="39.1577" y1="22.7775" x2="67.321" y2="22.7775" gradientUnits="userSpaceOnUse">
<stop stop-color="#469154"/>
<stop offset="0.1602" stop-color="#4C9453"/>
<stop offset="0.3698" stop-color="#5C9E4F"/>
<stop offset="0.6069" stop-color="#77AE49"/>
<stop offset="0.8623" stop-color="#9DC340"/>
<stop offset="1" stop-color="#B4D13B"/>
</linearGradient>
<linearGradient id="paint1_linear_4969_1603" x1="61.2185" y1="78.222" x2="36.6039" y2="33.558" gradientUnits="userSpaceOnUse">
<stop stop-color="#FF7E01"/>
<stop offset="0.2453" stop-color="#FF8204"/>
<stop offset="0.4994" stop-color="#FF8F0C"/>
<stop offset="0.7566" stop-color="#FFA31A"/>
<stop offset="1" stop-color="#FFBE2C"/>
</linearGradient>
<clipPath id="clip0_4969_1603">
<rect width="96" height="96" fill="white"/>
</clipPath>
</defs>
</svg>
