<svg width="96" height="96" viewBox="0 0 96 96" fill="none" xmlns="http://www.w3.org/2000/svg">
<rect width="96" height="96" fill="#F4F5F8"/>
<path d="M80.1081 48.0386C80.1081 43.5236 79.1162 39.2344 77.3214 35.3516L65.5135 74.2705C74.2986 68.6268 80.1081 58.9648 80.1081 48.0386Z" fill="#E30613"/>
<path d="M34.3784 18.8985L34.4706 19.3084L47.8387 66.4862L61.5294 19.1262L61.6216 18.853C57.519 16.9859 52.9093 15.893 48.0691 15.893C43.1829 15.8474 38.5271 16.9404 34.3784 18.8985Z" fill="#E30613"/>
<path d="M15.8919 48.0953C15.8919 58.8679 21.2664 68.4487 29.5135 74.2705L18.5328 35.3516C16.8649 39.248 15.8919 43.5571 15.8919 48.0953Z" fill="#E30613"/>
<path d="M48 12C28.1065 12 12 28.1065 12 48C12 67.8935 28.1065 84 48 84C67.8935 84 84 67.8935 84 48C84 28.1065 67.8479 12 48 12ZM16.0152 48C16.0152 43.4829 16.9278 39.2395 18.616 35.3156L29.4297 74.0076C21.308 68.2129 16.0152 58.7224 16.0152 48ZM34.4943 19.4373L34.403 19.0266C38.5095 17.0646 43.1179 16.0152 48 16.0152C52.7909 16.0152 57.3536 17.0646 61.4145 18.981L61.3232 19.2548L47.7719 66.7072L34.4943 19.4373ZM65.8403 74.5095L77.2928 35.1787C79.0266 39.1027 79.9848 43.4373 79.9848 48C79.9392 59.0418 74.327 68.8061 65.8403 74.5095Z" fill="#F9AF00"/>
</svg>
