<svg xmlns="http://www.w3.org/2000/svg" viewBox="0 0 64 64" width="64" height="64">
  <defs>
    <linearGradient id="bg" x1="0%" y1="0%" x2="100%" y2="100%">
      <stop offset="0%" style="stop-color:#1a56db"/>
      <stop offset="100%" style="stop-color:#7e3af2"/>
    </linearGradient>
  </defs>
  <rect width="64" height="64" rx="14" fill="url(#bg)"/>
  <g transform="translate(12, 8) scale(0.62)">
    <path d="M35 2c-3.5 0-8 2.5-12 7.5S16 20 15 25c-3.5 1-6 2.5-7.5 4.5S5 34 5 36c0 1 .3 1.8 1 2.2s1.5.3 2.5-.2l5-3c0 3 .5 6 1.5 8.5S18 49 20 51l-3 5c-.5 1-.6 1.8-.2 2.5S18 60 19 60c2 0 5-1 8-3.5s5.5-4.5 7-7c1.5 2.5 4 4.5 7 7s6 3.5 8 3.5c1 0 1.8-.3 2.2-1s.3-1.5-.2-2.5l-3-5c2-2 3.5-4.5 4.5-7s1.5-5.5 1.5-8.5l5 3c1 .5 1.8.6 2.5.2s1-1.2 1-2.2c0-2-1-4.5-2.5-6.5S49.5 26 46 25c-1-5-3.5-10-7.5-15.5S38.5 2 35 2z" fill="white"/>
    <circle cx="35" cy="25" r="5" fill="url(#bg)"/>
    <path d="M28 52l-2 6M42 52l2 6M35 54v5" stroke="white" stroke-width="2.5" stroke-linecap="round" opacity="0.7"/>
  </g>
</svg>
